<svg xmlns="http://www.w3.org/2000/svg" viewBox="0 0 80 80" enable-background="new 0 0 80 80"><switch><g><circle cx="40" cy="40" r="40" fill="#344a5f"/><g><circle cx="19.8" cy="46.3" r="1.3" fill="#a7a8aa"/><g><circle cx="17.9" cy="32" r="1.2" fill="#a7a8aa"/><circle cx="38.7" cy="24.5" r="1" fill="#a7a8aa"/><circle cx="42.8" cy="28.6" r=".7" fill="#a7a8aa"/><circle cx="14.3" cy="25.4" r="1" fill="#a7a8aa"/><circle cx="25" cy="27.1" r=".7" fill="#a7a8aa"/></g><g><path d="m32.5 36.9c.2 0 .4 0 .6 0 .9-2.2 2.3-4.1 4.2-5.4-.2-2.9-1.4-5.7-3.6-7.9-1.7-1.7-3.8-2.8-6-3.3 4 4.1 3.9 10.6-.1 14.7-4 4-10.6 4.1-14.7.1.5 2.2 1.6 4.3 3.3 6 2.4 2.4 5.5 3.6 8.6 3.6 0 0 0-.1 0-.1 0-4.2 3.5-7.7 7.7-7.7" fill="#fff"/><path d="m58.2 37.6c-1.1 0-2.2.2-3.2.6-1.4-4.3-5.5-7.4-10.2-7.4-5.1 0-9.3 3.5-10.5 8.2-.6-.2-1.2-.3-1.8-.3-3.3 0-6 2.7-6 6 0 .6.1 1.1.2 1.7-.1 0-.1 0-.2 0-2.5 0-4.6 2.1-4.6 4.6s2.1 4.6 4.6 4.6h31.6c4.9 0 9-4 9-9 .1-5-3.9-9-8.9-9" fill="#748799"/></g></g></g></switch></svg>