<svg xmlns="http://www.w3.org/2000/svg" viewBox="0 0 80 80" enable-background="new 0 0 80 80"><switch><g><circle cx="40" cy="40" r="40" fill="#2e98e3"/><g><g><path d="m20 45.4l-2.4 2.4c-.4.4-.4 1 0 1.4.2.2.4.3.7.3.2 0 .5-.1.7-.3l2.4-2.4c.4-.4.4-1 0-1.4-.4-.4-1.1-.4-1.4 0" fill="#ffbd03"/><path d="m37.1 30.6c.2 0 .5-.1.7-.3l2.4-2.4c.4-.4.4-1 0-1.4-.4-.4-1-.4-1.4 0l-2.3 2.5c-.4.4-.4 1 0 1.4.2.1.4.2.6.2" fill="#ffbd03"/><path d="m20 30.3c.2.2.4.3.7.3.2 0 .5-.1.7-.3.4-.4.4-1 0-1.4l-2.4-2.4c-.4-.4-1-.4-1.4 0-.4.4-.4 1 0 1.4l2.4 2.4" fill="#ffbd03"/><path d="m28.8 27.2c.5 0 1-.4 1-1v-3.3c0-.5-.5-1-1-1-.5 0-1 .4-1 1v3.3c0 .5.5 1 1 1" fill="#ffbd03"/><path d="m18.2 37.8c0-.5-.4-1-1-1h-3.4c-.5 0-1 .5-1 1s.4 1 1 1h3.4c.5 0 1-.5 1-1" fill="#ffbd03"/></g><g><path d="m32.6 39.5c.2 0 .4 0 .6 0 .8-1.9 2-3.6 3.5-4.9-1.4-3-4.4-5-7.8-5-4.7 0-8.6 3.8-8.6 8.6 0 3.3 1.9 6.2 4.7 7.6.7-3.6 3.8-6.3 7.6-6.3" fill="#ffbd03"/><path d="m58.8 40.2c-1.3-.1-2.6.1-3.7.6-1.4-4.3-5.5-7.4-10.2-7.4-5.1 0-9.3 3.5-10.5 8.2-.7-.2-1.6-.3-2.4-.2-2.5.2-4.7 2.1-5.2 4.6-.2 1.1-.2 2.1.1 3-.1 0-.1 0-.2 0-2.5 0-4.6 2.1-4.6 4.6 0 2.5 2.1 4.6 4.6 4.6.3 0 31.6 0 31.6 0 5.1 0 9.2-4.2 8.9-9.4-.2-4.6-3.9-8.4-8.4-8.6" fill="#fff"/></g></g></g></switch></svg>