<svg xmlns="http://www.w3.org/2000/svg" viewBox="0 0 80 80" enable-background="new 0 0 80 80"><switch><g><circle fill="#2e98e3" cx="40" cy="40" r="40"/><g><g><g><path fill="#ffbd03" d="m20.8 37.2l-2.3 2.3c-.4.4-.4.9 0 1.3.2.2.4.3.7.3.2 0 .5-.1.7-.3l2.3-2.3c.4-.4.4-.9 0-1.3-.5-.3-1.1-.3-1.4 0"/><path fill="#ffbd03" d="m37.2 23.1c.2 0 .5-.1.7-.3l2.3-2.3c.4-.4.4-.9 0-1.3-.4-.4-1-.4-1.3 0l-2.3 2.3c-.4.4-.4.9 0 1.3.1.2.4.3.6.3"/><path fill="#ffbd03" d="m20.8 22.8c.2.2.4.3.7.3.2 0 .5-.1.7-.3.4-.4.4-.9 0-1.3l-2.3-2.3c-.4-.4-1-.4-1.3 0-.4.4-.4.9 0 1.3l2.2 2.3"/><path fill="#ffbd03" d="m29.2 19.8c.5 0 1-.4 1-.9v-3.2c0-.5-.5-.9-1-.9-.5 0-1 .4-1 .9v3.2c.1.5.5.9 1 .9"/><path fill="#ffbd03" d="m19 29.9c0-.5-.4-1-.9-1h-3.2c-.5 0-.9.5-.9 1 0 .5.4 1 .9 1h3.2c.5 0 .9-.5.9-1"/></g><g><path fill="#ffbd03" d="m32.8 31.5c.2 0 .4 0 .6 0 .7-1.9 1.9-3.5 3.4-4.7-1.3-2.8-4.2-4.8-7.5-4.8-4.5 0-8.2 3.7-8.2 8.2 0 3.2 1.8 6 4.5 7.3.6-3.4 3.6-6 7.2-6"/><path fill="#fff" d="m57.9 32.2c-1.3-.1-2.5.1-3.5.5-1.3-4.1-5.2-7.1-9.8-7.1-4.8 0-8.9 3.3-10 7.8-.7-.2-1.5-.3-2.3-.2-2.4.2-4.5 2.1-5 4.4-.2 1-.2 2 .1 2.9-.1 0-.1 0-.2 0-2.4 0-4.4 2-4.4 4.4 0 2.4 2 4.4 4.4 4.4.3 0 30.3 0 30.3 0 4.9 0 8.8-4 8.6-9-.3-4.2-3.8-7.8-8.2-8.1"/></g></g><path fill="#8bdcfc" d="m39.3 52c0 0-1.7 2.3-2.6 4.3-.2.4-.2.7-.2 1.2 0 .3 0 .5.1.7.3 1.2 1.4 2.1 2.7 2.1 1.3 0 2.4-.9 2.7-2.1.1-.2.1-.5.1-.7 0-.4-.1-.8-.2-1.2-.8-2-2.6-4.3-2.6-4.3"/><path fill="#8bdcfc" d="m49.8 58.3c0 0-1.4 1.9-2.2 3.6-.1.3-.2.6-.2 1 0 .2 0 .4.1.6.3 1 1.2 1.8 2.3 1.8 1.1 0 2-.7 2.3-1.8.1-.2.1-.4.1-.6 0-.3-.1-.7-.2-1-.7-1.7-2.2-3.6-2.2-3.6"/></g></g></switch></svg>