<svg xmlns="http://www.w3.org/2000/svg" viewBox="0 0 80 80" enable-background="new 0 0 80 80"><switch><g><circle fill="#2e98e3" cx="40" cy="40" r="40"/><g><path fill="#8bdcfc" d="m31.6 54.9l-1.1-.7 1.2-.3c.3-.1.5-.4.4-.7-.1-.3-.4-.5-.7-.4l-1.5.4c.1-.3.1-.6.1-.8 0-.3 0-.6-.1-.8l1.5.4c0 0 .1 0 .1 0 .2 0 .5-.2.5-.4.1-.3-.1-.6-.4-.7l-1.2-.3 1.1-.7c.3-.2.4-.5.2-.8-.2-.3-.5-.4-.8-.2l-1.1.7.3-1.2c.1-.3-.1-.6-.4-.7-.3-.1-.6.1-.7.4l-.4 1.5c-.4-.4-.9-.6-1.4-.8l1.1-1.1c.2-.2.2-.6 0-.8-.2-.2-.6-.2-.8 0l-.9.9v-1.3c0-.3-.2-.6-.6-.6-.3 0-.6.2-.6.6v1.3l-.9-.9c-.2-.2-.6-.2-.8 0-.2.2-.2.6 0 .8l1.1 1.1c-.5.2-1 .4-1.4.8l-.4-1.5c-.1-.3-.4-.5-.7-.4-.3.1-.5.4-.4.7l.3 1.2-1.1-.7c-.3-.2-.6-.1-.8.2-.2.3-.1.6.2.8l1.1.7-1.2.3c-.3.1-.5.4-.4.7.1.2.3.4.5.4 0 0 .1 0 .1 0l1.5-.4c-.1.3-.1.6-.1.8 0 .3 0 .6.1.8l-1.1-.4c-.3-.1-.6.1-.7.4-.1.3.1.6.4.7l1.2.3-1.1.7c-.3.2-.4.5-.2.8.1.2.3.3.5.3.1 0 .2 0 .3-.1l1.1-.7-.3 1.2c-.1.3.1.6.4.7 0 0 .1 0 .1 0 .2 0 .5-.2.5-.4l.4-1.5c.4.4.9.6 1.4.8l-1 1.1c-.2.2-.2.6 0 .8.1.1.3.2.4.2.1 0 .3-.1.4-.2l.9-.9v1.3c0 .3.2.6.6.6.3 0 .6-.2.6-.6v-1.3l.9.9c-.1.1.1.1.2.1.1 0 .3-.1.4-.2.2-.2.2-.6 0-.8l-1.1-1c.5-.2 1-.4 1.4-.8l.4 1.5c.1.2.3.4.5.4 0 0 .1 0 .1 0 .3-.1.5-.4.4-.7l-.3-1.2 1.1.7c.1.1.2.1.3.1.2 0 .4-.1.5-.3.2-.3.1-.7-.1-.8m-8.1-2.5c0-.3.1-.6.1-.8l1.4.8-1.4.8c-.1-.3-.1-.5-.1-.8m2.1 2.6c-.6-.1-1.1-.4-1.4-.8l1.4-.8v1.6m0-3.6l-1.4-.8c.4-.4.9-.7 1.4-.8v1.6m1.1-1.7c.6.1 1.1.4 1.4.8l-1.4.8v-1.6m0 5.3v-1.7l1.4.8c-.3.5-.8.8-1.4.9m2-1.8l-1.4-.8 1.4-.8c.1.3.1.5.1.8.1.3 0 .5-.1.8"/><path fill="#8bdcfc" d="m59.3 54.9l-1.1-.7 1.2-.3c.3-.1.5-.4.4-.7-.1-.3-.4-.5-.7-.4l-1.5.4c.1-.3.1-.6.1-.8 0-.3 0-.6-.1-.8l1.5.4c0 0 .1 0 .1 0 .2 0 .5-.2.5-.4.1-.3-.1-.6-.4-.7l-1.2-.3 1.1-.7c.3-.2.4-.5.2-.8-.2-.3-.5-.4-.8-.2l-1.1.7.3-1.2c.1-.3-.1-.6-.4-.7-.3-.1-.6.1-.7.4l-.4 1.5c-.4-.4-.9-.6-1.4-.8l1.1-1.1c.2-.2.2-.6 0-.8-.2-.2-.6-.2-.8 0l-.9.9v-1.3c0-.3-.2-.6-.6-.6-.3 0-.6.2-.6.6v1.3l-.9-.9c-.2-.2-.6-.2-.8 0-.2.2-.2.6 0 .8l1.1 1.1c-.5.2-1 .4-1.4.8l-.4-1.5c-.1-.3-.4-.5-.7-.4-.3.1-.5.4-.4.7l.3 1.2-.9-.7c-.3-.2-.6-.1-.8.2-.2.3-.1.6.2.8l1.1.7-1.2.3c-.3.1-.5.4-.4.7.1.2.3.4.5.4 0 0 .1 0 .1 0l1.5-.4c-.1.3-.1.6-.1.8 0 .3 0 .6.1.8l-1.5-.4c-.3-.1-.6.1-.7.4-.1.3.1.6.4.7l1.2.3-1.1.7c-.3.2-.4.5-.2.8.1.2.3.3.5.3.1 0 .2 0 .3-.1l1.1-.7-.3 1.2c-.1.3.1.6.4.7 0 0 .1 0 .1 0 .2 0 .5-.2.5-.4l.4-1.5c.4.4.9.6 1.4.8l-1.1 1.1c-.2.2-.2.6 0 .8.3.1.5.1.6.1.1 0 .3-.1.4-.2l.9-.9v1.3c0 .3.2.6.6.6.3 0 .6-.2.6-.6v-1.2l.9.9c.1.1.3.2.4.2.1 0 .3-.1.4-.2.2-.2.2-.6 0-.8l-1.2-1.1c.5-.2 1-.4 1.4-.8l.4 1.5c.1.2.3.4.5.4 0 0 .1 0 .1 0 .3-.1.5-.4.4-.7l-.3-1.2 1.1.7c.1.1.2.1.3.1.2 0 .4-.1.5-.3.2-.3.1-.7-.1-.8m-8.1-2.5c0-.3.1-.6.1-.8l1.4.8-1.4.8c-.1-.3-.1-.5-.1-.8m2.1 2.6c-.6-.1-1.1-.4-1.4-.8l1.4-.8v1.6m0-3.6l-1.4-.8c.4-.4.9-.7 1.4-.8v1.6m1.1-1.7c.6.1 1.1.4 1.4.8l-1.4.8v-1.6m0 5.3v-1.7l1.4.8c-.3.5-.8.8-1.4.9m2-1.8l-1.4-.8 1.4-.8c.1.3.1.5.1.8.1.3 0 .5-.1.8"/><g><circle fill="#8bdcfc" cx="31.9" cy="63.5" r="1.9"/><circle fill="#8bdcfc" cx="48.6" cy="60.8" r="1.6"/><circle fill="#8bdcfc" cx="43" cy="50.2" r="1.2"/></g><path fill="#8bdcfc" d="m44.3 59.1l-.8-.5.8-.2c.2-.1.3-.3.3-.5-.1-.2-.3-.3-.5-.3l-1 .3c0-.2.1-.4.1-.6 0-.2 0-.4-.1-.6l1 .3c0 0 .1 0 .1 0 .2 0 .3-.1.4-.3.1-.2-.1-.4-.3-.5l-.8-.2.8-.5c.2-.1.2-.3.1-.5-.1-.2-.3-.2-.5-.1l-.8.5.2-.8c.1-.2-.1-.4-.3-.5-.2-.1-.4.1-.5.3l-.3 1c-.3-.3-.6-.5-1-.6l.8-.8c.2-.2.2-.4 0-.6-.2-.2-.4-.2-.6 0l-.6.6v-.9c0-.2-.2-.4-.4-.4-.2 0-.4.2-.4.4v.9l-.6-.6c-.2-.2-.4-.2-.6 0-.2.2-.2.4 0 .6l.8.8c-.4.1-.7.3-1 .6l-.3-1c-.1-.2-.3-.3-.5-.3-.2.1-.3.3-.3.5l.2.8-.8-.5c-.2-.1-.4 0-.5.1-.1.2 0 .4.1.5l.8.5-.8.2c-.2.1-.3.3-.3.5 0 .2.2.3.4.3 0 0 .1 0 .1 0l1-.3c0 .2-.1.4-.1.6 0 .2 0 .4.1.6l-1-.3c-.2-.1-.4.1-.5.3-.1.2.1.4.3.5l.8.2-.8.5c-.2.1-.2.3-.1.5.1.1.2.2.3.2.1 0 .1 0 .2-.1l.8-.5-.2.8c-.1.2.1.4.3.5 0 0 .1 0 .1 0 .2 0 .3-.1.4-.3l.3-1c.3.3.6.5 1 .6l-.8.8c-.2.2-.2.4 0 .6.1.1.2.1.3.1.1 0 .2 0 .3-.1l.6-.6v.9c0 .2.2.4.4.4.2 0 .4-.2.4-.4v-.9l.6.6c.1.1.2.1.3.1.1 0 .2 0 .3-.1.2-.2.2-.4 0-.6l-.8-.8c.4-.1.7-.3 1-.6l.3 1c0 .2.2.3.4.3 0 0 .1 0 .1 0 .2-.1.3-.3.3-.5l-.2-.8.8.5c.1 0 .1.1.2.1.1 0 .3-.1.3-.2.1-.2 0-.4-.1-.5m-5.7-1.8c0-.2 0-.4.1-.6l1 .6-1 .6c-.1-.2-.1-.4-.1-.6m1.5 1.9c-.4-.1-.7-.3-1-.6l1-.6v1.2m0-2.5l-1-.6c.3-.3.6-.5 1-.6v1.2m.8-1.2c.4.1.7.3 1 .6l-1 .6v-1.2m0 3.7v-1.2l1 .6c-.3.3-.6.5-1 .6m1.4-1.3l-1-.6 1-.6c.1.2.1.4.1.6 0 .2-.1.4-.1.6"/><path fill="#fff" d="m55.7 22.6c-1.3 0-2.5.2-3.7.7-1.6-5-6.3-8.6-11.8-8.6-5.8 0-10.7 4-12 9.4-.7-.2-1.4-.3-2.1-.3-3.8 0-6.9 3.1-6.9 6.9 0 .7.1 1.3.3 1.9-.1 0-.1 0-.2 0-2.9 0-5.3 2.4-5.3 5.3 0 2.9 2.4 5.3 5.3 5.3 1.1 0 36.4 0 36.4 0 5.7 0 10.3-4.6 10.3-10.3 0-5.7-4.6-10.3-10.3-10.3"/></g></g></switch></svg>