<svg xmlns="http://www.w3.org/2000/svg" viewBox="0 0 80 80" enable-background="new 0 0 80 80"><switch><g><circle cx="40" cy="40" r="40" fill="#2e98e3"/><g><path d="m40 25.7c-8.1 0-14.6 6.5-14.6 14.6 0 8 6.6 14.6 14.6 14.6 8.1 0 14.6-6.5 14.6-14.6 0-8-6.6-14.6-14.6-14.6" fill="#ffbd03"/><path d="m24.9 52.7l-4.1 4.1c-.6.6-.6 1.7 0 2.3.3.3.7.5 1.2.5.4 0 .8-.2 1.2-.5l4.1-4.1c.6-.6.6-1.7 0-2.3-.7-.6-1.8-.6-2.4 0" fill="#ffbd03"/><path d="m54.1 27.6c.4 0 .8-.2 1.2-.5l4.1-4.1c.6-.6.6-1.7 0-2.3-.6-.6-1.7-.6-2.3 0l-4.1 4.1c-.6.6-.6 1.7 0 2.3.3.4.7.5 1.1.5" fill="#ffbd03"/><path d="m24.9 27.1c.3.3.7.5 1.2.5.4 0 .8-.2 1.2-.5.6-.6.6-1.7 0-2.3l-4.1-4.1c-.6-.6-1.7-.6-2.3 0-.6.6-.6 1.7 0 2.3l4 4.1" fill="#ffbd03"/><path d="m55.3 52.7c-.6-.6-1.7-.6-2.3 0-.6.6-.6 1.7 0 2.3l4.1 4.1c.3.3.7.5 1.2.5.4 0 .8-.2 1.2-.5.6-.6.6-1.7 0-2.3l-4.2-4.1" fill="#ffbd03"/><path d="m39.9 21.8c.9 0 1.7-.7 1.7-1.6v-5.7c0-.9-.8-1.6-1.7-1.6-.9 0-1.7.7-1.7 1.6v5.7c0 .8.8 1.6 1.7 1.6" fill="#ffbd03"/><path d="m40 58.2c-.9 0-1.7.7-1.7 1.6v5.7c0 .9.8 1.6 1.7 1.6.9 0 1.7-.7 1.7-1.6v-5.7c-.1-.8-.8-1.6-1.7-1.6" fill="#ffbd03"/><path d="m65.6 38.1h-5.7c-.9 0-1.6.8-1.6 1.7 0 .9.7 1.7 1.6 1.7h5.7c.9 0 1.6-.8 1.6-1.7 0-.9-.7-1.7-1.6-1.7" fill="#ffbd03"/><path d="m21.8 39.8c0-.9-.7-1.7-1.6-1.7h-5.7c-.9 0-1.6.8-1.6 1.7 0 .9.7 1.7 1.6 1.7h5.7c.9 0 1.6-.8 1.6-1.7" fill="#ffbd03"/></g></g></switch></svg>