<svg xmlns="http://www.w3.org/2000/svg" viewBox="0 0 80 80" enable-background="new 0 0 80 80"><switch><g><circle cx="40" cy="40" r="40" fill="#2e98e3"/><g><g><path d="m54.6 25.1c-2.7 0-5 2.2-5 4.9 0 2.7 2.2 4.9 5 4.9 2.7 0 5-2.2 5-4.9 0-2.7-2.2-4.9-5-4.9" fill="#ffbd03"/><path d="m49.5 34.3l-1.4 1.4c-.2.2-.2.6 0 .8.1.1.3.2.4.2.1 0 .3-.1.4-.2l1.4-1.4c.2-.2.2-.6 0-.8-.2-.2-.6-.2-.8 0" fill="#ffbd03"/><path d="m59.4 25.8c.1 0 .3-.1.4-.2l1.4-1.4c.2-.2.2-.6 0-.8-.2-.2-.6-.2-.8 0l-1.4 1.4c-.2.2-.2.6 0 .8.1.1.3.2.4.2" fill="#ffbd03"/><path d="m49.5 25.6c.1.1.3.2.4.2.1 0 .3-.1.4-.2.2-.2.2-.6 0-.8l-1.4-1.4c-.2-.2-.6-.2-.8 0-.2.2-.2.6 0 .8l1.4 1.4" fill="#ffbd03"/><path d="m59.8 34.3c-.2-.2-.6-.2-.8 0-.2.2-.2.6 0 .8l1.4 1.4c.1.1.3.2.4.2.1 0 .3-.1.4-.2.2-.2.2-.6 0-.8l-1.4-1.4" fill="#ffbd03"/><path d="m54.7 23.7c.3 0 .6-.2.6-.6v-1.9c0-.3-.3-.6-.6-.6-.3 0-.6.2-.6.6v1.9c0 .4.3.6.6.6" fill="#ffbd03"/><path d="m54.7 36.1c-.3 0-.6.2-.6.6v1.9c0 .3.3.6.6.6.3 0 .6-.2.6-.6v-1.9c0-.4-.3-.6-.6-.6" fill="#ffbd03"/><path d="m63.3 29.4h-1.9c-.3 0-.6.3-.6.6 0 .3.2.6.6.6h1.9c.3 0 .6-.3.6-.6 0-.4-.3-.6-.6-.6" fill="#ffbd03"/><path d="m48.5 29.9c0-.3-.2-.6-.6-.6h-1.9c-.3 0-.6.3-.6.6 0 .3.2.6.6.6h2c.3 0 .5-.3.5-.6" fill="#ffbd03"/></g><g><path d="m60.3 42.3l-5.6-1.5-7-1.8-7.1-1.9-7.1-1.9-7.1-1.9v22.7l7.1-1.9 7.1-1.9 7.1-1.9 7.1-1.9 5.6-1.5c0 0 1.5-.3 1.5-2.5 0-1.7-1.6-2.1-1.6-2.1" fill="#d74118"/><g><path d="m20.5 33.4v25.9h3.8v-25.9c-.6.2-1.2.3-1.9.3-.7 0-1.4-.1-1.9-.3" fill="#bfc0c1"/><circle cx="22.3" cy="28.1" r="3.5" fill="#bfc0c1"/></g><g><path fill="#fff" d="m33.5 35.3v18.9l7.1-1.9v-15.2z"/><path fill="#fff" d="m47.7 39v11.5l7.1-1.9v-7.7z"/><path fill="#d74118" d="m26.4 33.4v22.7l7.1-1.9v-18.9z"/><path fill="#d74118" d="m40.6 37.1v15.2l7.1-1.8v-11.5z"/><path d="m60.3 42.3l-5.6-1.5v7.7l5.6-1.5c0 0 1.5-.3 1.5-2.5.1-1.8-1.5-2.2-1.5-2.2" fill="#d74118"/></g><path d="m64.8 35.9c-2.8 0-4.3-.5-5.7-1-1.2-.4-2.3-.8-4.6-.8-2.3 0-3.4.4-4.6.8-1.3.5-2.8 1-5.7 1-2.8 0-4.3-.5-5.7-1-1.2-.4-2.3-.8-4.6-.8-.8 0-1.5-.7-1.5-1.5 0-.8.7-1.5 1.5-1.5 2.8 0 4.3.5 5.7 1 1.2.4 2.3.8 4.6.8 2.3 0 3.4-.4 4.6-.8 1.3-.5 2.8-1 5.7-1 2.8 0 4.3.5 5.7 1 1.2.4 2.3.8 4.6.8.8 0 1.5.7 1.5 1.5s-.7 1.5-1.5 1.5" fill="#fff" opacity=".5"/><path d="m46.1 46.8c-2.8 0-4.3-.5-5.7-1-1.2-.4-2.3-.8-4.6-.8-2.3 0-3.4.4-4.6.8-1.3.5-2.8 1-5.7 1-2.8 0-4.3-.5-5.7-1-1.2-.4-2.3-.8-4.6-.8-.8 0-1.5-.7-1.5-1.5 0-.8.7-1.5 1.5-1.5 2.8 0 4.3.5 5.7 1 1.2.4 2.3.8 4.6.8 2.3 0 3.4-.4 4.6-.8 1.3-.5 2.8-1 5.7-1 2.8 0 4.3.5 5.7 1 1.2.4 2.3.8 4.6.8.8 0 1.5.7 1.5 1.5.1.8-.6 1.5-1.5 1.5" fill="#fff" opacity=".5"/><path d="m59.6 57.7c-2.8 0-4.3-.5-5.7-1-1.2-.4-2.3-.8-4.6-.8-2.3 0-3.4.4-4.6.8-1.3.5-2.8 1-5.7 1-2.8 0-4.3-.5-5.7-1-1.2-.4-2.3-.8-4.6-.8-.8 0-1.5-.7-1.5-1.5 0-.8.7-1.5 1.5-1.5 2.8 0 4.3.5 5.7 1 1.2.4 2.3.8 4.6.8 2.3 0 3.4-.4 4.6-.8 1.3-.5 2.8-1 5.7-1 2.8 0 4.3.5 5.7 1 1.2.4 2.3.8 4.6.8.8 0 1.5.7 1.5 1.5.1.8-.6 1.5-1.5 1.5" fill="#fff" opacity=".5"/></g></g></g></switch></svg>